<!-- Generated by IcoMoon.io -->
<svg version="1.1" xmlns="http://www.w3.org/2000/svg" width="32" height="32" viewBox="0 0 32 32">
<title>ammo_primary</title>
<path d="M30.592 8.8l-3.616-3.648-0.064 0.096v-0.096h-21.824v0.096l-3.616 3.552h-0.064v13.536h0.064l3.616 3.68h21.824v-0.064l0.064 0.064 3.616-3.68v-13.536zM25.152 23.232h-18.272l-2.656-2.624v-9.952l2.656-2.688h18.208l2.656 2.624v10.016zM16 9.888q-0.192 0-0.544 0.32t-0.64 0.672q-0.32 0.544-0.352 1.056v2.272h3.136v-2.272q-0.064-0.544-0.416-1.056-0.288-0.384-0.672-0.672t-0.512-0.32zM14.464 14.624h3.136v6.176h-3.136v-6.176z"></path>
</svg>
