<!-- Generated by IcoMoon.io -->
<svg version="1.1" xmlns="http://www.w3.org/2000/svg" width="32" height="32" viewBox="0 0 32 32">
<title>class_warlock</title>
<path d="M29.056 22.24l1.12 1.952h-4.544l2.272-3.904zM26.784 18.336l1.12 1.952h-4.48l2.208-3.904zM27.904 20.288l-2.272 3.904-2.208-3.904h4.48zM24.544 14.432l1.088 1.952h-4.48l2.272-3.936zM25.632 16.384l-2.208 3.904-2.272-3.904h4.48zM24.16 22.24l1.088 1.952h-4.416l2.208-3.84zM22.272 10.528l1.152 1.92h-4.512l2.24-3.872zM23.424 12.448l-2.272 3.936-2.24-3.936h4.512zM21.92 18.4l1.12 1.952h-4.448l2.24-3.872zM23.040 20.352l-2.208 3.84-2.24-3.84h4.448zM19.712 14.56l1.12 1.92h-4.448l2.208-3.872zM20.832 16.48l-2.24 3.872-2.208-3.872h4.448zM19.264 22.304l1.088 1.888h-4.352l2.144-3.776zM17.12 10.528l1.12 1.92-2.24 3.936-2.24-3.936 2.24-3.872zM17.088 18.528l1.056 1.888h-4.32l2.176-3.776zM18.144 20.416l-2.144 3.776-2.176-3.776h4.32zM14.912 22.304l1.088 1.888h-4.352l2.176-3.776zM14.528 14.56l1.088 1.92h-4.416l2.176-3.872zM15.616 16.48l-2.24 3.872-2.176-3.872h4.416zM12.288 18.4l1.088 1.952h-4.416l2.24-3.872zM13.376 20.352l-2.176 3.84-2.24-3.84h4.416zM11.968 10.528l1.088 1.92h-4.48l2.24-3.872zM13.056 12.448l-2.24 3.936-2.24-3.936h4.48zM10.048 22.24l1.152 1.952h-4.48l2.24-3.84zM9.696 14.432l1.12 1.952h-4.48l2.24-3.936zM10.816 16.384l-2.24 3.904-2.24-3.904h4.48zM7.424 18.336l1.152 1.952h-4.512l2.272-3.904zM8.576 20.288l-2.24 3.904-2.272-3.904h4.512zM5.184 22.24l1.152 1.952h-4.512l2.24-3.904z"></path>
</svg>
