<!-- Generated by IcoMoon.io -->
<svg version="1.1" xmlns="http://www.w3.org/2000/svg" width="32" height="32" viewBox="0 0 32 32">
<title>damage_arc</title>
<path d="M15.136 29.952v-4.832q0-0.608-0.064-0.832t-0.32-0.192-0.736 0.352q-3.36 1.824-6.72 3.712-0.736 0.384-2.080 0.576l-0.32 0.032q-1.888 0.256-2.88 0.192 0.096-0.192 0.416-0.448l0.128-0.096 3.008-2.848q1.568-1.504 4.704-4.576 0.16-0.128 0.16-0.224t-0.224-0.192l-1.696-0.928q-2.336-1.28-3.552-1.824-1.376-0.64-2.4-2.176 0.16-0.064 0.416-0.064h4.608q0.64 0 0.768-0.192t-0.224-0.704q-1.824-3.424-3.744-6.816-0.48-0.864-0.64-2.208-0.16-1.056-0.224-1.6-0.064-0.896-0.032-1.632 0.96 0.96 1.408 1.44 3.232 3.488 6.56 6.88 0.192 0.192 0.32 0.16t0.192-0.256q0.384-0.768 1.216-2.272 1.12-2.048 1.632-3.104 0.288-0.64 0.864-1.216 0.352-0.352 1.152-0.96l0.032-0.032q0.096 0.16 0.096 0.448v4.64q0 0.64 0.16 0.736t0.704-0.192l6.848-3.776q0.8-0.448 2.048-0.608 0.608-0.096 1.792-0.192l0.864-0.096h0.64q-0.192 0.32-0.608 0.704l-0.224 0.192q-3.68 3.424-7.264 6.976-0.224 0.224-0.192 0.352t0.288 0.288l1.664 0.896q2.4 1.312 3.648 1.888 0.576 0.256 1.12 0.8 0.384 0.384 0.896 1.056l0.032 0.032q0.128 0.096 0.096 0.192t-0.256 0.096h-5.152q-0.576 0-0.32 0.512l1.216 2.272 2.816 5.056q0.256 0.512 0.416 1.184l0.224 1.632q0.128 0.736 0.128 1.728v0.48l-0.32-0.256-0.928-0.8-2.080-2.24-4.608-4.736q-0.192-0.192-0.32-0.192t-0.256 0.256q-0.288 0.576-0.928 1.728-1.248 2.272-1.76 3.456-0.32 0.704-0.896 1.312-0.512 0.48-1.312 1.056zM16.032 13.856q-0.096 0.064-0.224 0.192l-2.208 2.208q-0.16 0.128-0.16 0.256t0.16 0.288q1.088 1.024 2.144 2.112 0.16 0.16 0.288 0.16t0.256-0.128q0.512-0.576 1.632-1.664l0.544-0.544q0.16-0.128 0.16-0.224t-0.128-0.224q-1.152-1.088-2.24-2.24l-0.096-0.064q-0.096-0.064-0.128-0.128z"></path>
</svg>
