<!-- Generated by IcoMoon.io -->
<svg version="1.1" xmlns="http://www.w3.org/2000/svg" width="32" height="32" viewBox="0 0 32 32">
<title>discipline</title>
<path d="M7.272 21.766c0.703 3.677 3.464 5.842 3.464 5.842h10.824c0 0 2.761-2.165 3.464-5.842h-17.751z"></path>
<path d="M6.984 13.754v-5.653c0-0.383 0.157-0.747 0.433-1.016l2.372-2.271c0.282-0.27 0.659-0.42 1.048-0.42h10.698c0 0 1.192 0.27 1.192 1.92s-1.111 1.838-1.111 1.838h-11.332c0 0-1.512 0.295-1.512 1.675s-0.006 2.384-1.788 3.928z"></path>
<path d="M22.155 13.007h0.013c0-3.551-2.347-3.551-2.347-3.551h-7.335c0 0-2.347 0-2.347 3.551h-0.006c0 0-2.861 2.027-2.861 6.494h17.751c-0.006-4.762-2.867-6.494-2.867-6.494zM13.71 17.801h-1.625v-1.625h1.625v1.625zM13.71 14.557h-1.625v-1.625h1.625v1.625zM16.954 17.801h-1.625v-1.625h1.625v1.625zM16.954 14.557h-1.625v-1.625h1.625v1.625zM20.204 17.801h-1.625v-1.625h1.625v1.625zM20.204 14.557h-1.625v-1.625h1.625v1.625z"></path>
</svg>
