<!-- Generated by IcoMoon.io -->
<svg version="1.1" xmlns="http://www.w3.org/2000/svg" width="32" height="32" viewBox="0 0 32 32">
<title>ghost</title>
<path d="M15.84 21.664v7.232l-1.408 0.704-4.8-7.264 3.808-3.808zM9.952 15.776h-7.264l-0.672 1.344 7.232 4.864 3.808-3.808zM15.84 9.536v-7.264l-1.408-0.704-4.8 7.296 3.808 3.808zM10.016 15.392h-7.328l-0.672-1.344 7.264-4.864 3.808 3.808zM16.192 21.664v7.232l1.376 0.704 4.832-7.264-3.808-3.808zM22.048 15.744h7.264l0.704 1.408-7.264 4.8-3.776-3.808zM16.192 9.536v-7.264l1.376-0.704 4.832 7.296-3.808 3.808zM21.984 15.424h7.328l0.672-1.408-7.264-4.832-3.808 3.808zM16 18.816q-0.8 0-1.504-0.384t-1.12-1.12-0.384-1.536 0.384-1.536 1.12-1.12 1.504-0.384 1.536 0.384 1.12 1.12 0.384 1.536v0q0 0.832-0.384 1.536t-1.12 1.12-1.536 0.384v0zM16 13.28q-1.024 0-1.76 0.736t-0.704 1.76 0.704 1.76 1.76 0.736 1.76-0.736 0.736-1.76v0q0-1.024-0.736-1.76t-1.76-0.736v0zM15.712 14.752v0.512l-0.448 0.448h-0.544v-0.224zM15.712 16.704v-0.544l-0.448-0.448h-0.544v0.224zM16.256 14.752v0.512l0.448 0.448h0.544v-0.224zM16.256 16.704v-0.544l0.448-0.448h0.544v0.224zM16.256 15.776q0 0.128-0.064 0.192t-0.192 0.096-0.192-0.096l-0.096-0.192q-0.032-0.064 0.096-0.192t0.192-0.096l0.192 0.096q0.128 0.064 0.064 0.192z"></path>
</svg>
