<!-- Generated by IcoMoon.io -->
<svg version="1.1" xmlns="http://www.w3.org/2000/svg" width="32" height="32" viewBox="0 0 32 32">
<title>icon_display_options_small_only</title>
<path d="M1.333 10.133h4.8v4.8h-4.8v-4.8z"></path>
<path d="M7.467 10.133h4.8v4.8h-4.8v-4.8z"></path>
<path d="M13.6 10.133h4.8v4.8h-4.8v-4.8z"></path>
<path d="M19.733 10.133h4.8v4.8h-4.8v-4.8z"></path>
<path d="M25.867 10.133h4.8v4.8h-4.8v-4.8z"></path>
<path d="M1.333 16.4h4.8v4.8h-4.8v-4.8z"></path>
<path d="M7.467 16.4h4.8v4.8h-4.8v-4.8z"></path>
<path d="M13.6 16.4h4.8v4.8h-4.8v-4.8z"></path>
<path d="M19.733 16.4h4.8v4.8h-4.8v-4.8z"></path>
<path d="M25.867 16.4h4.8v4.8h-4.8v-4.8z"></path>
<path d="M1.333 22.667h4.8v4.8h-4.8v-4.8z"></path>
<path d="M7.467 22.667h4.8v4.8h-4.8v-4.8z"></path>
<path d="M13.6 22.667h4.8v4.8h-4.8v-4.8z"></path>
<path d="M19.733 22.667h4.8v4.8h-4.8v-4.8z"></path>
<path d="M25.867 22.667h4.8v4.8h-4.8v-4.8z"></path>
<path d="M1.333 4h4.8v4.8h-4.8v-4.8z"></path>
<path d="M7.467 4h4.8v4.8h-4.8v-4.8z"></path>
<path d="M13.6 4h4.8v4.8h-4.8v-4.8z"></path>
<path d="M19.733 4h4.8v4.8h-4.8v-4.8z"></path>
<path d="M25.867 4h4.8v4.8h-4.8v-4.8z"></path>
</svg>
