<!-- Generated by IcoMoon.io -->
<svg version="1.1" xmlns="http://www.w3.org/2000/svg" width="32" height="32" viewBox="0 0 32 32">
<title>icon_display_options_only_medium</title>
<path d="M1.333 13.333h8.8v6.667h-8.8zM2.667 18.667h4v-4h-4z"></path>
<path d="M11.6 13.333h8.8v6.667h-8.8zM12.933 18.667h4v-4h-4z"></path>
<path d="M21.867 13.333h8.8v6.667h-8.8zM23.2 18.667h4v-4h-4z"></path>
<path d="M1.333 21.333h8.8v6.667h-8.8zM2.667 26.667h4v-4h-4z"></path>
<path d="M11.6 21.333h8.8v6.667h-8.8zM12.933 26.667h4v-4h-4z"></path>
<path d="M21.867 21.333h8.8v6.667h-8.8zM23.2 26.667h4v-4h-4z"></path>
<path d="M1.333 5.333h8.8v6.667h-8.8zM2.667 10.667h4v-4h-4z"></path>
<path d="M11.6 5.333h8.8v6.667h-8.8zM12.933 10.667h4v-4h-4z"></path>
<path d="M21.867 5.333h8.8v6.667h-8.8zM23.2 10.667h4v-4h-4z"></path>
</svg>
