<!-- Generated by IcoMoon.io -->
<svg version="1.1" xmlns="http://www.w3.org/2000/svg" width="32" height="32" viewBox="0 0 32 32">
<title>icon_display_options_equipped_with_medium</title>
<path d="M1.333 4h29.333v8h-29.333zM2.667 10.667h5.333v-5.333h-5.333z"></path>
<path d="M1.333 13.333h8.8v6.667h-8.8zM2.667 18.667h4v-4h-4z"></path>
<path d="M11.6 13.333h8.8v6.667h-8.8zM12.933 18.667h4v-4h-4z"></path>
<path d="M21.867 13.333h8.8v6.667h-8.8zM23.2 18.667h4v-4h-4z"></path>
<path d="M1.333 21.333h8.8v6.667h-8.8zM2.667 26.667h4v-4h-4z"></path>
<path d="M11.6 21.333h8.8v6.667h-8.8zM12.933 26.667h4v-4h-4z"></path>
<path d="M21.867 21.333h8.8v6.667h-8.8zM23.2 26.667h4v-4h-4z"></path>
</svg>
