<!-- Generated by IcoMoon.io -->
<svg version="1.1" xmlns="http://www.w3.org/2000/svg" width="32" height="32" viewBox="0 0 32 32">
<title>intellect</title>
<path d="M15.987 6.99l3.84 3.84 1.299-1.299-5.139-5.139-5.133 5.139 1.293 1.299z"></path>
<path d="M15.987 25.010l-3.84-3.84-1.293 1.299 5.133 5.139 5.139-5.139-1.299-1.299z"></path>
<path d="M21.735 11.357c-0.86 0.339-3.225 1.801-4.863 2.886-0.025-0.013-0.044-0.025-0.069-0.038-0.169-2.227-0.533-5.566-0.816-6.601-0.289 1.035-0.653 4.355-0.828 6.588-0.006 0-0.013 0.006-0.013 0.006-1.587-1.155-3.884-2.704-4.725-3.081 0.477 0.784 2.315 2.855 3.664 4.279-0.063 0.188-0.1 0.383-0.1 0.596 0 0.182 0.031 0.351 0.075 0.514-1.412 1.368-3.332 3.363-3.84 4.122 0.853-0.339 3.213-1.794 4.85-2.886 0.025 0.013 0.056 0.031 0.082 0.044 0.169 2.227 0.533 5.553 0.809 6.588 0.282-1.035 0.653-4.367 0.828-6.595 0 0 0.006 0 0.006 0 1.587 1.154 3.89 2.711 4.731 3.087-0.483-0.784-2.328-2.874-3.683-4.298 0.056-0.182 0.094-0.376 0.094-0.577 0-0.176-0.031-0.339-0.069-0.502 1.424-1.362 3.351-3.363 3.865-4.135z"></path>
<path d="M8.703 11.677l-4.298 4.304 4.235 4.242 1.299-1.299-2.943-2.943 3.005-3.005z"></path>
<path d="M23.36 11.758l-1.299 1.299 2.943 2.943-3.006 3.006 1.299 1.293 4.298-4.298z"></path>
</svg>
