<!-- Generated by IcoMoon.io -->
<svg version="1.1" xmlns="http://www.w3.org/2000/svg" width="32" height="32" viewBox="0 0 32 32">
<title>recovery</title>
<path d="M6.155 18.196l4.034-5.634h-2.265v-1.123l8.1-4.675 8.1 4.675v2.968l1.719-2.397 1.732 2.428v-4.988l-11.551-6.67-11.551 6.67v3.112h-2.347l2.347 3.282z"></path>
<path d="M27.576 16.264l-1.732-2.422-1.719 2.397-2.315 3.238h2.315v1.318l-8.1 4.674-8.1-4.675v-3.213l-1.769 2.472-1.682-2.347v5.082l11.551 6.664 11.551-6.664v-3.313h2.296z"></path>
<path d="M10.642 16c0 2.974 2.409 5.384 5.384 5.384s5.384-2.409 5.384-5.384c0-2.974-2.409-5.384-5.384-5.384s-5.384 2.409-5.384 5.384zM18.798 15.373v1.255h-2.146v2.146h-1.255v-2.146h-2.146v-1.255h2.146v-2.146h1.255v2.146h2.146z"></path>
</svg>
